Coordinates
version=1
nRows=6
nColumns=34
inDegrees=yes

Units are S.I. units (second, meters, Newtons, ...)
If the header above contains a line with 'inDegrees', this indicates whether rotational values are in degrees (yes) or radians (no).

endheader
time	pelvis_tilt	pelvis_list	pelvis_rotation	pelvis_tx	pelvis_ty	pelvis_tz	hip_flexion_r	hip_adduction_r	hip_rotation_r	knee_angle_r	ankle_angle_r	subtalar_angle_r	mtp_angle_r	hip_flexion_l	hip_adduction_l	hip_rotation_l	knee_angle_l	ankle_angle_l	subtalar_angle_l	mtp_angle_l	lumbar_extension	lumbar_bending	lumbar_rotation	arm_flex_r	arm_add_r	arm_rot_r	elbow_flex_r	pro_sup_r	arm_flex_l	arm_add_l	arm_rot_l	elbow_flex_l	pro_sup_l
      2.83333330	     -5.94100282	     -6.59566253	     13.74111697	      1.90359775	      0.87703715	     -0.13826104	     27.39097600	     -7.21638272	    -15.96538207	     43.33291952	      0.83582026	     -7.29343821	      0.00000000	    -11.28274999	    -10.40584048	     -3.48432425	      2.90337274	      3.45599537	     11.05551231	      0.00000000	     -4.96076323	      3.68234753	     -7.18314170	      4.60891652	    -10.49153826	     -4.23620942	     59.05601495	     89.17840801	      1.00436670	    -16.51779635	     12.19278181	     72.45258070	     86.98595366
      2.85000000	     -5.99299542	     -6.44969174	     14.26637291	      1.91931204	      0.87284439	     -0.13831536	     28.58126350	     -7.14357396	    -15.63829973	     38.80382974	      2.75375594	     -7.32771112	      0.00000000	    -12.30106068	    -10.68775862	     -3.06749110	      2.68452085	      5.03412671	     10.43583122	      0.00000000	     -5.24472819	      3.71304638	     -8.22023423	      1.38251333	     -8.04660210	     -5.27200124	     53.01739892	     89.19329708	     -0.80360573	    -16.77556933	     11.06898844	     66.46726475	     86.66865079
      2.86666670	     -6.14464529	     -6.16236791	     14.74025719	      1.93448649	      0.86997414	     -0.13847622	     29.21016449	     -7.28464967	    -15.29460359	     33.29646017	      3.84953196	     -7.27111521	      0.00000000	    -13.43615215	    -10.79260565	     -2.77930462	      2.50388283	      5.32470866	     10.12226002	      0.00000000	     -5.21150349	      3.56311045	     -9.46783509	     -1.39295646	     -5.98623102	     -6.07959707	     46.64992100	     89.23648725	     -2.88601696	    -16.82411594	     10.14972970	     60.62046752	     86.58322932
      2.88333330	     -6.45667089	     -5.86042856	     14.99762443	      1.94587595	      0.86739492	     -0.13669420	     29.65664936	     -7.47619295	    -14.89030121	     27.24809330	      4.36927460	     -7.10467204	      0.00000000	    -14.31067852	    -10.76748064	     -2.62871158	      2.58265290	      4.71451577	     10.00960516	      0.00000000	     -5.13565580	      3.41414490	    -10.72269891	     -3.48752893	     -4.47839651	     -6.50363875	     40.66164921	     89.22351955	     -4.81435409	    -16.70567259	      9.33963574	     55.06753771	     86.63851645
      2.90000000	     -6.89095853	     -5.54373010	     15.07714590	      1.95562110	      0.86480128	     -0.13291226	     30.19379891	     -7.66692646	    -14.35206293	     21.47124540	      4.57960249	     -6.83894418	      0.00000000	    -14.83384219	    -10.63924936	     -2.40284650	      2.90852615	      3.93609087	     10.04084311	      0.00000000	     -5.04232975	      3.18255186	    -11.80678415	     -5.05706462	     -3.45229042	     -6.48456843	     35.15543801	     89.08298692	     -6.43800198	    -16.56229080	      8.63459192	     49.90361291	     86.73008898
      2.91666670	     -7.31904555	     -5.21149145	     15.05284732	      1.96722368	      0.86253406	     -0.12853924	     30.68348244	     -7.79062868	    -13.79333456	     16.51946707	      4.44156472	     -6.41416673	      0.00000000	    -15.15166162	    -10.50309789	     -2.31350187	      3.40805040	      3.24268142	     10.19415814	      0.00000000	     -5.16249735	      2.91195779	    -12.64361980	     -6.60257103	     -2.65444463	     -6.02836899	     30.59363114	     88.73046765	     -7.87332552	    -16.52946713	      8.22925455	     45.52553743	     86.75694768
